HIERARCHY
ROOT Hips
{
	OFFSET 0.00000 0.00000 0.00000
	CHANNELS 6 Xposition Yposition Zposition Zrotation Yrotation Xrotation 
	JOINT LHipJoint
	{
		OFFSET 0 0 0
		CHANNELS 3 Zrotation Yrotation Xrotation
		JOINT LeftUpLeg
		{
			OFFSET 2.36090 -1.39315 1.24752
			CHANNELS 3 Zrotation Yrotation Xrotation
			JOINT LeftLeg
			{
				OFFSET 2.06810 -5.68207 0.00000
				CHANNELS 3 Zrotation Yrotation Xrotation
				JOINT LeftFoot
				{
					OFFSET 2.46631 -6.77613 0.00000
					CHANNELS 3 Zrotation Yrotation Xrotation
					JOINT LeftToeBase
					{
						OFFSET 0.26031 -0.71520 1.99545
						CHANNELS 3 Zrotation Yrotation Xrotation
						End Site
						{
							OFFSET 0.00000 -0.00000 1.05957
						}
					}
				}
			}
		}
	}
	JOINT RHipJoint
	{
		OFFSET 0 0 0
		CHANNELS 3 Zrotation Yrotation Xrotation
		JOINT RightUpLeg
		{
			OFFSET -2.25243 -1.39315 1.24752
			CHANNELS 3 Zrotation Yrotation Xrotation
			JOINT RightLeg
			{
				OFFSET -2.17343 -5.97145 0.00000
				CHANNELS 3 Zrotation Yrotation Xrotation
				JOINT RightFoot
				{
					OFFSET -2.52372 -6.93386 0.00000
					CHANNELS 3 Zrotation Yrotation Xrotation
					JOINT RightToeBase
					{
						OFFSET -0.22538 -0.61923 2.11447
						CHANNELS 3 Zrotation Yrotation Xrotation
						End Site
						{
							OFFSET -0.00000 -0.00000 1.10506
						}
					}
				}
			}
		}
	}
	JOINT LowerBack
	{
		OFFSET 0 0 0
		CHANNELS 3 Zrotation Yrotation Xrotation
		JOINT Spine
		{
			OFFSET 0.01594 2.13103 0.08007
			CHANNELS 3 Zrotation Yrotation Xrotation
			JOINT Spine1
			{
				OFFSET 0.01393 2.09723 0.18338
				CHANNELS 3 Zrotation Yrotation Xrotation
				JOINT Neck
				{
					OFFSET 0 0 0
					CHANNELS 3 Zrotation Yrotation Xrotation
					JOINT Neck1
					{
						OFFSET 0.05351 1.38915 0.32494
						CHANNELS 3 Zrotation Yrotation Xrotation
						JOINT Head
						{
							OFFSET 0.00711 1.45992 -0.21666
							CHANNELS 3 Zrotation Yrotation Xrotation
							End Site
							{
								OFFSET -0.00433 1.47702 -0.11056
							}
						}
					}
				}
				JOINT LeftShoulder
				{
					OFFSET 0 0 0
					CHANNELS 3 Zrotation Yrotation Xrotation
					JOINT LeftArm
					{
						OFFSET 2.87198 0.92249 0.11132
						CHANNELS 3 Zrotation Yrotation Xrotation
						JOINT LeftForeArm
						{
							OFFSET 5.52731 -0.00000 0.00000
							CHANNELS 3 Zrotation Yrotation Xrotation
							JOINT LeftHand
							{
								OFFSET 3.11059 -0.00000 0.00000
								CHANNELS 3 Zrotation Yrotation Xrotation
								JOINT LeftFingerBase
								{
									OFFSET 0 0 0
									CHANNELS 3 Zrotation Yrotation Xrotation
									JOINT LeftHandIndex1
									{
										OFFSET 0.41963 -0.00000 0.00000
										CHANNELS 3 Zrotation Yrotation Xrotation
										End Site
										{
											OFFSET 0.33831 -0.00000 0.00000
										}
									}
								}
								JOINT LThumb
								{
									OFFSET 0 0 0
									CHANNELS 3 Zrotation Yrotation Xrotation
									End Site
									{
										OFFSET 0.34348 -0.00000 0.34348
									}
								}
							}
						}
					}
				}
				JOINT RightShoulder
				{
					OFFSET 0 0 0
					CHANNELS 3 Zrotation Yrotation Xrotation
					JOINT RightArm
					{
						OFFSET -2.94710 0.68072 0.32187
						CHANNELS 3 Zrotation Yrotation Xrotation
						JOINT RightForeArm
						{
							OFFSET -5.25396 -0.00000 -0.00000
							CHANNELS 3 Zrotation Yrotation Xrotation
							JOINT RightHand
							{
								OFFSET -3.10567 -0.00000 0.00000
								CHANNELS 3 Zrotation Yrotation Xrotation
								JOINT RightFingerBase
								{
									OFFSET 0 0 0
									CHANNELS 3 Zrotation Yrotation Xrotation
									JOINT RightHandIndex1
									{
										OFFSET -0.49868 -0.00000 0.00000
										CHANNELS 3 Zrotation Yrotation Xrotation
										End Site
										{
											OFFSET -0.40204 -0.00000 0.00000
										}
									}
								}
								JOINT RThumb
								{
									OFFSET 0 0 0
									CHANNELS 3 Zrotation Yrotation Xrotation
									End Site
									{
										OFFSET -0.40818 -0.00000 0.40818
									}
								}
							}
						}
					}
				}
			}
		}
	}
}
MOTION
Frames: 10
Frame Time: 0.2
0.00 0.00 0.00 0 0 0 0 0 0 -21 0 0 0 0 0 0 0 0 0 0 0 0 0 0 21 0 0 0 0 0 0 0 0 0 0 0 0 0 0 0 0 0 0 0 0 0 0 -16 0 0 21 0 0 11 0 0 0 -8 0 0 0 0 0 0 0 0 0 0 0 0 0 0 0 0 0 0 0 0 8 0 0 0 0 0 0 0 0 0 0 0 0 0 0 0 0 0
0.00 0.00 0.00 -161.4710 -87.5189 -180.5880 0.0000 0.0000 0.0000 0.0000 0.0000 0.0000 0.0000 0.0000 0.0000 0.0000 0.0000 0.0000 0.0000 0.0000 0.0000 0.0000 0.0000 0.0000 20.0717 26.2079 -17.1998 -2.0768 -9.0242 25.8709 -0.4613 -9.9209 -20.0323 -0.0207 0.9288 -2.5529 -2.3684 0.5637 -30.0038 1.4246 0.8510 -4.2823 3.3037 0.0662 11.6654 6.1005 3.2775 -7.3328 -3.9937 3.9478 25.0072 -2.0506 1.7658 9.2521 -0.0000 -0.0000 0.0000 -102.7677 -36.7618 64.0683 159.3795 -31.3827 -114.1489 -0.0000 0.0000 -16.7449 59.6792 -30.2948 -40.7791 -7.1250 0.0000 -0.0000 15.3192 -17.7211 -19.8381 -0.0000 -0.0000 0.0000 98.3677 35.0888 74.0153 -159.2805 31.4994 -114.0973 0.0000 -0.0000 -1.7234 -54.0104 -14.0772 18.5160 7.1250 -0.0000 -0.0000 -27.4174 -50.9439 4.2919
0.00 0.00 0.00 -170.5450 -87.8119 -170.4930 0.0000 0.0000 0.0000 0.0000 0.0000 0.0000 0.0000 0.0000 0.0000 0.0000 0.0000 0.0000 0.0000 0.0000 0.0000 0.0000 0.0000 0.0000 18.7157 27.4411 -18.3986 -2.1334 -9.1386 26.2297 -0.3476 -11.1117 -20.0945 -0.0281 1.0818 -2.9738 -1.8441 0.5567 -26.6096 1.7774 0.4864 -6.3306 3.1554 -0.0387 7.6544 3.7962 3.8612 -14.7667 -2.1336 4.7700 17.6016 -0.8001 2.2737 8.0282 -0.0000 0.0000 0.0000 -86.9720 -22.2841 57.4535 154.5373 -36.6732 -111.4353 -0.0000 0.0000 -54.2076 42.5531 -2.1285 -1.9529 -7.1250 0.0000 -0.0000 12.1644 27.0346 -5.4205 -0.0000 0.0000 0.0000 84.1434 16.3524 58.2116 -145.2144 44.6584 -105.3375 0.0000 -0.0000 -55.9315 -21.1214 -37.5668 13.2528 7.1250 -0.0000 -0.0000 18.9200 -68.6159 -10.8636
0.00 0.00 0.00 -173.0400 -87.4997 -168.3270 0.0000 0.0000 0.0000 0.0000 0.0000 0.0000 0.0000 0.0000 0.0000 0.0000 0.0000 0.0000 0.0000 0.0000 0.0000 0.0000 0.0000 0.0000 18.7038 27.3843 -18.0809 -2.1293 -9.1303 26.2037 -0.3720 -10.8488 -20.0652 -0.0274 1.0691 -2.9389 0.2419 1.6148 -27.3589 -0.0914 1.5482 -5.3479 0.2569 0.5325 9.1832 5.5064 4.2293 -20.9014 -2.3812 4.6076 16.8915 -1.0796 2.2554 8.9129 -0.0000 -0.0000 0.0000 -78.7404 -10.9534 63.1986 144.3847 -45.2465 -104.7513 -0.0000 0.0000 -71.3325 31.0965 15.5260 9.1713 -7.1250 0.0000 -0.0000 3.3415 47.9265 0.2415 -0.0000 -0.0000 0.0000 83.4633 7.6604 66.2873 -129.5865 53.1609 -93.4952 0.0000 -0.0000 -49.1079 -19.8165 -38.7373 12.7070 7.1250 -0.0000 -0.0000 22.0720 -69.2680 -13.0551
0.00 0.00 0.00 -173.0720 -87.1829 -168.7680 0.0000 0.0000 0.0000 0.0000 0.0000 0.0000 0.0000 0.0000 0.0000 0.0000 0.0000 0.0000 0.0000 0.0000 0.0000 0.0000 0.0000 0.0000 18.8574 27.3352 -17.6568 -2.1273 -9.1263 26.1914 -0.3766 -10.6732 -19.9240 -0.0320 1.1539 -3.1723 2.3244 2.0619 -27.0948 -1.6429 1.7956 -4.4193 -2.5898 0.7790 10.2216 7.6553 5.0229 -22.5970 -2.4343 4.8905 16.4739 -1.3730 2.5061 9.1348 -0.0000 0.0000 0.0000 -73.7264 2.1579 53.6591 137.7525 -49.3465 -99.8719 -0.0000 0.0000 -66.9976 21.2323 17.9441 6.8258 -7.1250 0.0000 -0.0000 -6.6787 49.0226 -0.6653 -0.0000 0.0000 0.0000 82.2011 4.6061 62.5168 -116.2359 57.2323 -82.5098 0.0000 -0.0000 -52.1407 -2.2508 -35.5998 1.3107 7.1250 -0.0000 -0.0000 37.0262 -61.6702 -16.2322
0.00 0.00 0.00 -170.5320 -87.0009 -171.2730 0.0000 0.0000 0.0000 0.0000 0.0000 0.0000 0.0000 0.0000 0.0000 0.0000 0.0000 0.0000 0.0000 0.0000 0.0000 0.0000 0.0000 0.0000 18.9329 27.4927 -17.6680 -2.1078 -9.0871 26.0682 -0.3688 -10.6341 -19.7981 -0.0301 1.1204 -3.0801 2.9587 2.2756 -26.8816 -2.1552 1.9467 -4.5543 -3.4844 0.8725 10.0085 7.8366 4.9194 -22.6476 -1.4132 4.4478 17.6402 -1.1064 2.4407 9.5134 -0.0000 -0.0000 0.0000 -71.6711 9.1818 48.3384 130.2761 -52.8836 -94.0461 -0.0000 0.0000 -66.9464 16.8251 19.1174 5.6559 -7.1250 0.0000 -0.0000 -11.2638 49.5514 -1.2785 -0.0000 -0.0000 0.0000 81.3440 1.7825 58.9866 -98.8707 59.7006 -67.6745 0.0000 -0.0000 -46.7978 10.7477 -32.4999 -5.8233 7.1250 -0.0000 -0.0000 45.8424 -56.3349 -14.9143
0.00 0.00 0.00 -172.5690 -86.8173 -169.1370 0.0000 0.0000 0.0000 0.0000 0.0000 0.0000 0.0000 0.0000 0.0000 0.0000 0.0000 0.0000 0.0000 0.0000 0.0000 0.0000 0.0000 0.0000 18.6845 27.6718 -18.0013 -2.1360 -9.1437 26.2460 -0.3706 -10.5793 -19.7583 -0.0309 1.1351 -3.1206 2.8310 2.7304 -26.3474 -2.5428 2.5974 -5.0220 -3.6278 1.1511 9.2739 7.3543 4.2125 -22.3466 -0.6341 3.4578 18.9666 -0.9061 2.0560 9.8619 0.0000 -0.0000 0.0000 -70.2362 14.1981 45.8370 116.9919 -57.0596 -83.1449 -0.0000 0.0000 -62.1877 16.5179 18.9592 5.5034 -7.1250 0.0000 -0.0000 -11.5031 49.3451 -1.2473 0.0000 -0.0000 0.0000 80.9123 -2.1825 54.6865 -78.9073 59.5299 -50.4086 0.0000 -0.0000 -45.0237 7.0781 -34.4348 -4.0163 7.1250 -0.0000 -0.0000 44.5479 -58.5587 -16.8708
0.00 0.00 0.00 -176.4270 -86.7066 -165.3120 0.0000 0.0000 0.0000 0.0000 0.0000 0.0000 0.0000 0.0000 0.0000 0.0000 0.0000 0.0000 0.0000 0.0000 0.0000 0.0000 0.0000 0.0000 18.3713 27.7266 -18.2877 -2.1861 -9.2435 26.5599 -0.3871 -10.4739 -19.8224 -0.0294 1.1069 -3.0431 2.1018 2.9232 -25.7812 -2.4488 3.0317 -5.3072 -2.9662 1.3220 8.6597 6.7364 3.6656 -21.6875 -0.6963 2.9735 19.2395 -0.9112 1.7825 9.8089 -0.0000 -0.0000 0.0000 -69.8838 16.5771 45.1189 101.4228 -59.5012 -69.8758 -0.0000 0.0000 -57.0443 20.6170 17.6227 6.4979 -7.1250 0.0000 -0.0000 -7.1843 48.5937 -0.6399 -0.0000 -0.0000 0.0000 80.5429 -5.1384 51.0318 -63.5211 57.1775 -37.2859 0.0000 -0.0000 -45.7812 -4.8114 -38.1103 2.9738 7.1250 -0.0000 -0.0000 37.5957 -64.3131 -18.8418
0.00 0.00 0.00 -173.5710 -86.2317 -168.9740 0.0000 0.0000 0.0000 0.0000 0.0000 0.0000 0.0000 0.0000 0.0000 0.0000 0.0000 0.0000 0.0000 0.0000 0.0000 0.0000 0.0000 0.0000 18.9892 27.9473 -17.2990 -2.1803 -9.2320 26.5239 -0.3792 -10.4617 -19.7246 -0.0283 1.0857 -2.9848 1.4609 3.1002 -24.5610 -2.0344 3.4279 -5.3247 -2.0418 1.5018 7.9802 6.2477 3.3573 -20.6437 -0.9679 2.8537 18.8838 -0.9591 1.6563 9.4846 0.0000 -0.0000 0.0000 -69.9629 18.0220 44.9938 83.5798 -59.8437 -54.4429 -0.0000 0.0000 -52.8985 25.6627 16.7719 7.8934 -7.1250 0.0000 -0.0000 -2.1294 48.4563 -0.1816 0.0000 -0.0000 0.0000 80.7609 -6.8558 46.7754 -48.3901 52.3252 -24.8942 0.0000 -0.0000 -46.2444 -12.7774 -38.5087 8.0371 7.1250 -0.0000 -0.0000 29.8315 -66.9087 -16.3374
0.00 0.00 0.00 -167.8300 -87.2924 -174.7410 0.0000 0.0000 0.0000 0.0000 0.0000 0.0000 0.0000 0.0000 0.0000 0.0000 0.0000 0.0000 0.0000 0.0000 0.0000 0.0000 0.0000 0.0000 19.3611 28.0963 -16.9099 -2.1274 -9.1265 26.1919 -0.2840 -11.5557 -19.9160 -0.0206 0.9268 -2.5474 0.8707 2.5417 -24.2877 -1.6093 2.8158 -5.3730 -1.4347 1.1964 7.7033 6.4910 3.4950 -19.7838 -1.2057 3.0848 18.7792 -1.0591 1.7541 9.3117 -0.0000 0.0000 0.0000 -70.8427 19.5276 44.0567 57.9412 -55.7359 -32.6337 -0.0000 0.0000 -49.9707 32.2513 17.5057 10.7469 -7.1250 0.0000 -0.0000 4.3135 50.3834 0.5732 -0.0000 0.0000 0.0000 82.4817 -6.1265 39.1784 -27.4607 38.6150 -9.7853 0.0000 -0.0000 -40.9452 -16.8308 -37.1326 10.3487 7.1250 -0.0000 -0.0000 23.4774 -66.9209 -12.6836
